<?xml version="1.0" standalone="no"?>
<!DOCTYPE svg PUBLIC "-//W3C//DTD SVG 20010904//EN"
 "http://www.w3.org/TR/2001/REC-SVG-20010904/DTD/svg10.dtd">
<svg version="1.0" xmlns="http://www.w3.org/2000/svg"
 width="179.000000pt" height="245.000000pt" viewBox="0 0 179.000000 245.000000"
 preserveAspectRatio="xMidYMid meet">

<g transform="translate(0.000000,245.000000) scale(0.100000,-0.100000)"
fill="#c8966c5e" stroke="none">
<path d="M831 2138 c1 -68 6 -61 11 15 2 26 0 47 -4 47 -5 0 -7 -28 -7 -62z"/>
<path d="M230 2152 c0 -26 51 -53 129 -66 75 -13 115 -26 81 -26 -17 0 -4 -13
16 -16 11 -2 14 3 11 17 -6 24 2 24 19 2 7 -10 14 -13 14 -7 0 23 -34 39 -87
41 -30 0 -64 8 -78 17 -28 18 -39 21 -30 6 13 -22 -25 -8 -43 15 -20 25 -32
32 -32 17z"/>
<path d="M601 2153 c0 -5 4 -17 9 -28 7 -17 9 -17 9 -2 1 20 8 21 41 2 14 -8
34 -14 44 -15 21 0 16 10 -6 13 -7 2 -24 10 -38 20 -25 17 -61 23 -59 10z"/>
<path d="M1021 2134 c-1 -35 -33 -74 -60 -74 -19 0 -44 24 -54 50 -9 24 -6
-62 3 -90 l8 -25 1 28 c1 24 4 27 25 21 13 -3 33 -1 43 4 17 9 19 7 16 -26 -1
-20 0 -28 3 -18 5 15 8 16 15 5 5 -8 9 -9 9 -3 0 13 89 7 104 -7 5 -4 15 -1
23 7 11 10 40 14 108 14 l95 0 -10 -25 c-5 -14 -17 -39 -25 -55 -9 -17 -13
-36 -9 -42 4 -6 3 -8 -4 -5 -14 9 -64 -77 -56 -98 6 -14 12 -11 42 17 34 32
92 114 92 130 0 4 -6 8 -14 8 -22 0 -28 17 -15 42 19 35 -6 44 -112 40 -52 -1
-112 -4 -134 -6 -54 -3 -65 2 -66 33 0 14 -3 19 -6 11 -15 -45 -15 -46 -23
-25 -4 11 -3 32 2 47 5 15 8 37 5 50 -3 18 -5 17 -6 -8z m346 -221 c-11 -26
-32 -30 -40 -9 -7 17 10 35 33 33 15 -1 16 -5 7 -24z m-39 -45 c-3 -7 -12 -14
-21 -16 -12 -2 -15 1 -11 12 7 19 38 22 32 4z m-46 -50 c-7 -7 -12 -8 -12 -2
0 6 3 14 7 17 3 4 9 5 12 2 2 -3 -1 -11 -7 -17z"/>
<path d="M567 2078 c8 -44 13 -48 13 -10 0 17 -4 34 -10 37 -6 4 -7 -6 -3 -27z"/>
<path d="M860 2062 c0 -49 -26 -60 -33 -14 l-4 27 -2 -28 -1 -27 -72 5 c-40 3
-91 8 -113 10 -61 6 -73 -5 -52 -50 10 -20 13 -34 8 -31 -5 3 -12 -1 -15 -10
-7 -18 -21 -11 -21 10 0 14 -61 70 -87 79 -10 4 -18 2 -18 -4 0 -5 8 -12 18
-16 32 -11 52 -36 47 -57 -3 -12 -2 -15 1 -8 7 15 24 16 24 1 0 -18 47 -79
110 -145 l61 -63 -33 -31 -33 -32 38 28 c34 24 40 26 53 12 14 -14 10 -20 -43
-61 -80 -62 -147 -133 -138 -146 3 -6 1 -10 -6 -9 -6 2 -13 -2 -16 -8 -2 -6 4
-11 12 -11 9 0 27 20 41 44 24 40 102 118 151 150 20 13 24 13 37 0 8 -8 13
-23 10 -33 -5 -18 3 -19 148 -17 192 3 202 1 193 -35 -4 -15 -12 -30 -18 -34
-8 -5 -7 -8 5 -8 11 0 15 -6 11 -20 -8 -30 -73 -44 -173 -36 -105 8 -152 18
-157 33 -6 16 27 25 43 12 11 -9 14 -8 14 6 0 14 -6 16 -30 11 -19 -3 -29 -2
-25 4 3 5 1 18 -4 27 -8 15 -10 11 -11 -21 0 -28 -6 -43 -24 -57 -27 -21 -79
-147 -91 -216 -4 -24 -11 -45 -16 -49 -5 -3 -9 -16 -9 -29 0 -42 -68 -46 -146
-9 -43 21 -44 41 -3 125 26 52 59 134 59 144 0 1 -7 2 -16 2 -18 0 -52 -69
-84 -167 -10 -30 -18 -47 -19 -37 -1 9 -6 17 -12 17 -7 0 -9 -9 -6 -21 3 -12
-5 -60 -18 -108 -13 -47 -26 -97 -30 -111 -3 -14 8 0 24 30 24 43 30 49 25 25
-3 -16 -4 -57 -3 -90 1 -33 1 -72 1 -87 -1 -16 3 -28 8 -28 6 0 10 9 10 21 0
11 20 69 44 130 42 103 43 109 23 109 -16 0 -18 3 -10 11 7 7 25 9 48 5 31 -6
35 -9 24 -22 -10 -12 -14 -12 -20 -2 -5 7 -9 9 -10 3 0 -5 -2 -18 -4 -27 -2
-9 4 -23 13 -30 15 -11 15 -11 5 3 -11 13 -8 19 15 36 15 11 37 22 50 25 19 5
22 2 23 -20 0 -18 7 -7 18 33 11 36 20 54 24 45 3 -8 5 1 5 20 -2 52 21 137
54 204 29 57 30 58 65 53 43 -7 65 -25 59 -46 -12 -36 -27 -250 -36 -486 -5
-137 -14 -356 -21 -485 -6 -129 -13 -264 -14 -300 -2 -36 -4 -69 -4 -73 -2
-15 -84 4 -128 29 -23 13 -49 21 -58 18 -15 -6 -100 20 -118 35 -4 4 13 70 38
147 54 166 58 195 8 64 -19 -52 -41 -111 -48 -130 -7 -19 -17 -36 -23 -38 -6
-2 -26 11 -46 28 -40 36 -41 28 24 165 22 46 40 87 40 90 0 4 20 64 45 134 24
70 46 143 49 162 3 18 19 88 35 154 17 66 30 127 28 135 -1 8 -22 -61 -46
-155 -46 -181 -131 -446 -162 -507 -15 -30 -27 -39 -62 -48 -52 -13 -131 -48
-174 -77 -18 -12 -33 -18 -33 -12 0 30 76 296 150 522 5 15 5 27 1 27 -5 0
-13 -17 -19 -37 -6 -21 -32 -103 -57 -183 -91 -289 -109 -386 -91 -494 5 -34
4 -46 -3 -41 -17 10 -51 81 -51 106 0 11 31 119 69 238 39 119 79 253 90 298
12 45 24 90 27 100 5 12 4 15 -4 8 -5 -5 -27 -66 -47 -135 -20 -69 -63 -208
-96 -308 -45 -137 -58 -192 -54 -214 9 -38 -16 -35 -26 3 -4 13 -7 18 -8 10
-1 -11 -4 -11 -16 -1 -13 11 -15 -1 -15 -96 1 -79 3 -104 11 -91 12 21 38 22
53 2 10 -13 66 -15 433 -13 l423 3 -25 29 c-21 24 -27 27 -40 16 -13 -11 -16
-11 -13 1 2 7 -6 15 -17 17 -18 2 -20 12 -23 76 l-3 74 48 -4 c26 -2 66 -6 88
-9 22 -3 61 -1 88 4 l47 8 0 -50 0 -50 81 6 c53 4 91 13 108 24 43 29 64 42
100 58 18 9 35 24 38 34 3 10 16 24 29 30 28 12 30 25 9 74 -20 49 -19 57 8
57 33 0 124 -46 136 -69 23 -42 2 -182 -39 -258 -11 -20 -17 -39 -15 -42 8 -7
73 58 105 104 41 60 49 99 34 173 -7 35 -16 71 -19 81 -5 15 1 19 30 23 31 4
35 2 35 -20 0 -21 2 -22 15 -8 8 8 15 24 15 34 0 31 11 52 26 52 8 0 14 5 14
10 0 6 -4 10 -9 10 -19 0 -41 -32 -41 -58 0 -19 -3 -23 -9 -13 -6 9 -18 11
-33 8 -16 -4 -29 -1 -39 11 -14 16 -86 413 -119 651 -10 72 -22 128 -81 365
-16 65 -29 131 -29 147 0 15 -5 31 -10 34 -12 7 -3 -83 11 -123 19 -50 7 -54
-16 -5 -24 53 -84 119 -148 163 -65 44 -40 77 26 35 l42 -26 -38 36 c-21 20
-35 40 -32 45 3 6 2 17 -3 27 -9 14 -11 14 -21 -5 -7 -12 -8 -22 -4 -22 4 0 0
-5 -9 -11 -10 -5 -18 -15 -18 -22 0 -19 -50 -52 -82 -53 -37 -2 -55 27 -32 50
8 9 13 20 9 26 -3 5 0 18 6 28 7 11 9 27 4 38 -5 13 -9 15 -12 7 -3 -7 -12
-13 -21 -13 -10 0 -23 -9 -30 -20 -7 -12 -8 -20 -2 -20 5 0 10 4 10 9 0 5 11
11 25 14 25 4 25 4 9 -14 -9 -11 -24 -19 -33 -20 -14 0 -14 -1 -1 -7 8 -4 17
-16 18 -27 2 -11 0 -17 -4 -12 -4 4 -18 -3 -31 -15 -31 -29 -77 -28 -111 4
-15 14 -35 28 -45 31 -18 7 -19 23 -2 43 7 8 14 9 23 2 7 -6 15 -8 19 -4 3 3
1 6 -6 6 -7 0 -9 5 -5 12 4 6 3 8 -3 5 -6 -4 -18 0 -29 7 -27 20 -40 10 -36
-27 3 -23 15 -40 45 -62 22 -16 39 -34 36 -40 -2 -5 -24 -10 -49 -10 -40 0
-51 5 -97 49 -52 48 -123 157 -162 249 -12 27 -21 51 -21 53 0 2 36 4 79 4
l79 0 21 -67 c21 -70 48 -122 37 -74 -6 29 9 15 19 -18 5 -16 4 -21 -4 -17 -7
5 -8 1 -4 -10 4 -11 8 -13 11 -6 2 7 8 10 12 7 5 -3 -2 21 -14 52 -13 32 -27
73 -31 91 -6 30 -5 32 22 32 15 0 38 3 50 6 17 5 22 0 28 -25 3 -17 10 -33 15
-36 10 -6 -29 127 -41 140 -5 5 -9 -8 -9 -33z m-73 -114 c-3 -8 -6 -5 -6 6 -1
11 2 17 5 13 3 -3 4 -12 1 -19z m-167 -50 c0 -4 -9 -8 -20 -8 -20 0 -28 29
-13 44 7 7 33 -21 33 -36z m23 -32 c3 -8 3 -17 0 -20 -9 -9 -34 15 -27 25 8
13 21 11 27 -5z m27 -46 c0 -5 -4 -10 -10 -10 -5 0 -10 5 -10 10 0 6 5 10 10
10 6 0 10 -4 10 -10z m396 -148 c-8 -8 -46 -14 -46 -7 0 3 8 13 18 23 14 15
18 16 25 4 5 -7 6 -16 3 -20z m177 -11 c104 -73 110 -81 152 -254 29 -117 37
-162 29 -175 -27 -44 -148 -69 -186 -39 -11 8 -20 41 -27 103 -13 103 -35 186
-56 208 -10 9 -15 34 -15 70 0 46 4 59 28 84 15 16 28 30 30 31 2 0 22 -12 45
-28z m-98 -9 c-3 -3 -11 0 -18 7 -9 10 -8 11 6 5 10 -3 15 -9 12 -12z m288
-299 c6 -35 5 -34 -12 13 -10 28 -21 71 -25 95 -5 43 -5 43 13 -13 10 -31 21
-74 24 -95z m-274 110 c13 -35 44 -205 77 -433 14 -96 34 -206 44 -245 34
-125 90 -308 122 -399 30 -85 31 -89 13 -102 -16 -12 -20 -11 -32 6 -8 11 -25
51 -38 88 -13 37 -24 58 -24 47 0 -11 13 -54 29 -95 37 -92 37 -98 4 -106 -15
-4 -36 -16 -46 -26 -11 -11 -26 -17 -33 -14 -7 2 -15 -3 -18 -13 -5 -20 -46
-31 -118 -31 l-49 0 0 253 c0 229 -8 502 -29 912 -4 83 -5 155 -3 162 4 12 27
19 68 22 15 1 25 -8 33 -26z m-117 -83 c11 -152 28 -717 28 -938 l0 -202 -27
-11 c-26 -10 -218 -7 -229 4 -6 6 13 646 26 892 6 105 16 227 22 273 l11 83
81 -3 81 -3 7 -95z m395 48 c-3 -8 -6 -5 -6 6 -1 11 2 17 5 13 3 -3 4 -12 1
-19z m-937 -58 c-16 -40 -23 -33 -9 9 6 18 14 30 17 27 2 -3 -1 -19 -8 -36z
m986 -130 c19 -90 33 -173 31 -184 -3 -21 -9 3 -48 199 -12 61 -24 121 -27
135 -2 14 -2 22 2 19 4 -3 22 -80 42 -169z m48 -475 c24 -170 47 -331 50 -358
l6 -47 -38 16 c-20 9 -63 24 -94 33 -54 14 -57 17 -67 56 -6 22 -33 116 -60
208 -33 108 -58 220 -71 310 -12 78 -24 152 -27 165 -5 20 -1 22 31 22 30 0
38 -5 46 -25 5 -14 12 -25 14 -25 3 0 3 11 0 25 -2 14 0 25 5 25 4 0 22 3 38
6 23 4 32 2 37 -11 5 -14 2 -17 -18 -13 -20 4 -23 2 -15 -11 5 -9 27 -74 50
-144 22 -71 43 -127 45 -124 2 2 -5 29 -15 60 -11 30 -28 87 -39 126 -17 60
-18 70 -5 75 11 4 13 14 8 36 -4 16 -2 30 3 30 5 0 15 12 22 28 13 26 14 24
32 -63 10 -49 38 -229 62 -400z m-1059 412 c-7 -13 -6 -20 4 -26 11 -7 8 -24
-15 -92 l-29 -84 -3 110 c-2 61 0 120 3 132 l5 22 23 -22 c18 -17 20 -26 12
-40z m1085 -373 c17 -104 46 -277 66 -385 l37 -197 -23 -46 c-19 -38 -70 -100
-70 -85 0 2 9 29 21 59 33 88 29 141 -56 695 -15 101 -19 163 -10 153 3 -3 19
-90 35 -194z m-1177 -451 c-3 -10 -12 -25 -20 -35 -13 -14 -12 -20 2 -41 9
-14 32 -36 51 -49 19 -12 36 -30 39 -39 6 -17 91 -59 119 -59 9 0 16 -4 16
-10 0 -14 -20 -12 -51 4 -18 9 -31 10 -44 3 -31 -17 -170 -2 -210 23 -52 32
-81 17 -90 -45 -4 -25 -11 -47 -15 -50 -13 -8 -31 55 -37 131 -5 65 -4 72 18
93 45 42 148 88 201 90 22 1 26 -2 21 -16z m-303 -223 c0 -5 -2 -10 -4 -10 -3
0 -8 5 -11 10 -3 6 -1 10 4 10 6 0 11 -4 11 -10z m582 -20 c32 -20 24 -25 -19
-14 -22 6 -41 34 -23 34 5 0 24 -9 42 -20z m-511 -72 c7 -13 5 -16 -11 -15
-11 1 -22 8 -25 16 -5 14 -7 14 -15 1 -14 -22 -13 6 1 32 11 21 12 21 26 2 8
-10 19 -27 24 -36z"/>
<path d="M1253 1223 c9 -2 25 -2 35 0 9 3 1 5 -18 5 -19 0 -27 -2 -17 -5z"/>
<path d="M1211 394 c0 -11 3 -14 6 -6 3 7 2 16 -1 19 -3 4 -6 -2 -5 -13z"/>
<path d="M1221 354 c-2 -18 32 -160 35 -149 2 6 -5 44 -15 85 -10 41 -19 70
-20 64z"/>
<path d="M1337 1143 c-3 -5 -3 -19 -2 -33 4 -29 89 -263 106 -289 13 -19 14
-23 -47 147 -28 77 -42 132 -38 147 5 22 -10 44 -19 28z"/>
<path d="M1506 760 c3 -14 11 -32 16 -40 6 -10 7 -7 2 10 -3 14 -11 32 -16 40
-6 10 -7 7 -2 -10z"/>
<path d="M268 224 c-4 -17 -11 -20 -39 -16 -45 6 -33 -4 31 -28 51 -19 52 -19
57 0 3 11 11 16 19 13 18 -7 18 4 0 23 -21 20 -26 18 -26 -12 0 -35 -23 -26
-30 12 -5 25 -6 26 -12 8z"/>
<path d="M350 168 c0 -4 11 -8 25 -8 14 0 25 4 25 10 0 5 -11 9 -25 8 -14 -1
-25 -6 -25 -10z"/>
<path d="M1516 2060 c-19 -22 -47 -42 -62 -46 -19 -5 -22 -9 -12 -15 9 -6 4
-11 -19 -20 -18 -6 -30 -15 -27 -20 10 -17 98 46 135 98 8 11 23 25 34 31 16
9 17 11 4 12 -9 0 -33 -18 -53 -40z"/>
<path d="M995 1940 c3 -5 8 -10 11 -10 2 0 4 5 4 10 0 6 -5 10 -11 10 -5 0 -7
-4 -4 -10z"/>
<path d="M516 1915 c4 -8 8 -15 10 -15 2 0 4 7 4 15 0 8 -4 15 -10 15 -5 0 -7
-7 -4 -15z"/>
<path d="M925 1915 c24 -70 48 -126 57 -131 6 -4 6 1 -1 14 -7 13 -8 30 -2 44
16 44 21 78 12 78 -5 0 -12 -12 -16 -27 l-8 -28 -13 30 c-7 17 -13 26 -14 20
0 -5 -5 -3 -11 5 -9 12 -10 11 -4 -5z"/>
<path d="M491 1583 c-6 -26 -13 -58 -15 -69 -3 -12 -9 -39 -15 -60 -6 -21 -9
-40 -7 -42 5 -4 41 100 38 111 -1 4 3 28 8 53 6 26 9 49 6 51 -2 2 -9 -18 -15
-44z"/>
<path d="M860 1540 c0 -5 14 -7 31 -5 45 6 49 15 6 15 -20 0 -37 -4 -37 -10z"/>
<path d="M950 1540 c20 -13 60 -13 60 0 0 6 -17 10 -37 10 -28 0 -34 -3 -23
-10z"/>
<path d="M1020 1542 c0 -4 14 -7 30 -7 17 -1 30 3 30 7 0 4 -13 8 -30 8 -16 0
-30 -3 -30 -8z"/>
<path d="M560 1230 c8 -5 22 -10 30 -10 13 0 13 1 0 10 -8 5 -22 10 -30 10
-13 0 -13 -1 0 -10z"/>
<path d="M497 993 c-20 -48 -35 -88 -33 -90 2 -2 20 35 40 83 21 47 36 88 33
90 -2 2 -20 -35 -40 -83z"/>
<path d="M326 1055 c-3 -9 -6 -22 -5 -28 0 -7 5 -1 10 12 5 13 8 26 5 28 -2 2
-6 -3 -10 -12z"/>
<path d="M347 1014 c-4 -4 -7 -14 -7 -23 0 -11 3 -12 11 -4 6 6 10 16 7 23 -2
6 -7 8 -11 4z"/>
<path d="M416 881 c-4 -7 -5 -15 -2 -18 9 -9 19 4 14 18 -4 11 -6 11 -12 0z"/>
<path d="M436 855 c-9 -26 -7 -32 5 -12 6 10 9 21 6 23 -2 3 -7 -2 -11 -11z"/>
<path d="M310 700 c-6 -11 -8 -20 -6 -20 3 0 10 9 16 20 6 11 8 20 6 20 -3 0
-10 -9 -16 -20z"/>
<path d="M282 645 c-17 -37 -14 -45 4 -12 9 16 14 31 11 33 -2 2 -9 -7 -15
-21z"/>
<path d="M566 525 c-9 -26 -7 -32 5 -12 6 10 9 21 6 23 -2 3 -7 -2 -11 -11z"/>
<path d="M100 466 c0 -19 -16 -21 -23 -3 -3 7 -6 4 -6 -6 -1 -10 -8 -26 -17
-34 -13 -14 -17 -14 -25 -2 -7 12 -9 11 -9 -2 0 -9 11 -28 25 -43 21 -23 28
-26 40 -16 8 7 15 18 15 24 0 6 -4 5 -9 -3 -11 -16 -45 -7 -39 11 2 6 13 16
23 22 10 6 26 19 36 28 15 14 16 18 3 29 -11 9 -14 8 -14 -5z"/>
<path d="M1692 345 c-11 -12 -10 -15 3 -15 8 0 15 7 15 15 0 18 -2 18 -18 0z"/>
<path d="M1743 340 c-11 -16 -10 -18 2 -14 8 4 15 12 15 20 0 19 -3 18 -17 -6z"/>
<path d="M1518 269 c-10 -5 -18 -20 -18 -32 0 -20 -21 -41 -60 -59 -11 -5 -10
-7 6 -7 26 -1 74 45 74 70 0 13 7 19 21 19 11 0 17 5 14 10 -8 12 -15 12 -37
-1z"/>
<path d="M1726 217 c-4 -17 -17 -59 -31 -92 -21 -51 -22 -56 -5 -35 11 14 20
31 20 38 0 7 5 22 11 33 8 16 14 18 24 9 10 -8 15 -8 20 1 6 8 9 8 15 0 3 -7
7 7 7 31 1 41 0 42 -10 16 -13 -35 -27 -36 -27 -4 0 38 -17 40 -24 3z"/>
<path d="M840 180 c0 -14 31 -28 52 -22 11 2 26 -4 36 -15 9 -11 28 -24 42
-28 22 -7 23 -6 11 8 -7 9 -17 14 -22 12 -4 -3 -13 4 -19 15 -7 13 -21 20 -41
20 -18 0 -28 4 -24 10 3 6 -3 10 -14 10 -12 0 -21 -4 -21 -10z"/>
<path d="M1395 170 c-3 -5 1 -10 9 -10 9 0 16 5 16 10 0 6 -4 10 -9 10 -6 0
-13 -4 -16 -10z"/>
<path d="M921 106 c0 -11 -8 -28 -18 -38 -15 -17 -15 -18 1 -18 20 0 29 20 23
52 -3 18 -5 19 -6 4z"/>
<path d="M1441 101 c-6 -10 -28 -23 -48 -29 -27 -7 -31 -10 -15 -11 29 -1 82
29 82 46 0 18 -8 16 -19 -6z"/>
<path d="M1198 72 c-10 -2 -18 -7 -18 -12 0 -8 -118 -7 -186 2 -27 3 -32 0
-41 -29 l-10 -33 114 0 c87 0 114 3 111 12 -10 28 22 41 98 39 41 -1 74 2 74
7 0 5 -24 8 -52 6 -29 -1 -57 1 -63 5 -5 4 -18 6 -27 3z"/>
<path d="M1600 29 c0 -5 5 -7 10 -4 6 3 10 8 10 11 0 2 -4 4 -10 4 -5 0 -10
-5 -10 -11z"/>
<path d="M1466 15 c-3 -9 0 -15 9 -15 9 0 12 6 9 15 -4 8 -7 15 -9 15 -2 0 -5
-7 -9 -15z"/>
<path d="M1555 16 l-30 -13 28 0 c15 0 30 4 33 9 10 16 0 17 -31 4z"/>
</g>
</svg>
